<svg xmlns="http://www.w3.org/2000/svg" width="500" height="500" viewBox="0 0 500 500"><rect x="0" y="0" width="500" height="500" fill="white" /><rect x="70.00" y="70.00" width="12.41" height="12.41" fill="black" /><rect x="82.41" y="70.00" width="12.41" height="12.41" fill="black" /><rect x="94.83" y="70.00" width="12.41" height="12.41" fill="black" /><rect x="107.24" y="70.00" width="12.41" height="12.41" fill="black" /><rect x="119.66" y="70.00" width="12.41" height="12.41" fill="black" /><rect x="132.07" y="70.00" width="12.41" height="12.41" fill="black" /><rect x="144.48" y="70.00" width="12.41" height="12.41" fill="black" /><rect x="206.55" y="70.00" width="12.41" height="12.41" fill="black" /><rect x="218.97" y="70.00" width="12.41" height="12.41" fill="black" /><rect x="231.38" y="70.00" width="12.41" height="12.41" fill="black" /><rect x="243.79" y="70.00" width="12.41" height="12.41" fill="black" /><rect x="256.21" y="70.00" width="12.41" height="12.41" fill="black" /><rect x="305.86" y="70.00" width="12.41" height="12.41" fill="black" /><rect x="318.28" y="70.00" width="12.41" height="12.41" fill="black" /><rect x="343.10" y="70.00" width="12.41" height="12.41" fill="black" /><rect x="355.52" y="70.00" width="12.41" height="12.41" fill="black" /><rect x="367.93" y="70.00" width="12.41" height="12.41" fill="black" /><rect x="380.34" y="70.00" width="12.41" height="12.41" fill="black" /><rect x="392.76" y="70.00" width="12.41" height="12.41" fill="black" /><rect x="405.17" y="70.00" width="12.41" height="12.41" fill="black" /><rect x="417.59" y="70.00" width="12.41" height="12.41" fill="black" /><rect x="70.00" y="82.41" width="12.41" height="12.41" fill="black" /><rect x="144.48" y="82.41" width="12.41" height="12.41" fill="black" /><rect x="169.31" y="82.41" width="12.41" height="12.41" fill="black" /><rect x="194.14" y="82.41" width="12.41" height="12.41" fill="black" /><rect x="218.97" y="82.41" width="12.41" height="12.41" fill="black" /><rect x="231.38" y="82.41" width="12.41" height="12.41" fill="black" /><rect x="268.62" y="82.41" width="12.41" height="12.41" fill="black" /><rect x="281.03" y="82.41" width="12.41" height="12.41" fill="black" /><rect x="293.45" y="82.41" width="12.41" height="12.41" fill="black" /><rect x="318.28" y="82.41" width="12.41" height="12.41" fill="black" /><rect x="343.10" y="82.41" width="12.41" height="12.41" fill="black" /><rect x="417.59" y="82.41" width="12.41" height="12.41" fill="black" /><rect x="70.00" y="94.83" width="12.41" height="12.41" fill="black" /><rect x="94.83" y="94.83" width="12.41" height="12.41" fill="black" /><rect x="107.24" y="94.83" width="12.41" height="12.41" fill="black" /><rect x="119.66" y="94.83" width="12.41" height="12.41" fill="black" /><rect x="144.48" y="94.83" width="12.41" height="12.41" fill="black" /><rect x="169.31" y="94.83" width="12.41" height="12.41" fill="black" /><rect x="181.72" y="94.83" width="12.41" height="12.41" fill="black" /><rect x="194.14" y="94.83" width="12.41" height="12.41" fill="black" /><rect x="218.97" y="94.83" width="12.41" height="12.41" fill="black" /><rect x="231.38" y="94.83" width="12.41" height="12.41" fill="black" /><rect x="256.21" y="94.83" width="12.41" height="12.41" fill="black" /><rect x="281.03" y="94.83" width="12.41" height="12.41" fill="black" /><rect x="305.86" y="94.83" width="12.41" height="12.41" fill="black" /><rect x="318.28" y="94.83" width="12.41" height="12.41" fill="black" /><rect x="343.10" y="94.83" width="12.41" height="12.41" fill="black" /><rect x="367.93" y="94.83" width="12.41" height="12.41" fill="black" /><rect x="380.34" y="94.83" width="12.41" height="12.41" fill="black" /><rect x="392.76" y="94.83" width="12.41" height="12.41" fill="black" /><rect x="417.59" y="94.83" width="12.41" height="12.41" fill="black" /><rect x="70.00" y="107.24" width="12.41" height="12.41" fill="black" /><rect x="94.83" y="107.24" width="12.41" height="12.41" fill="black" /><rect x="107.24" y="107.24" width="12.41" height="12.41" fill="black" /><rect x="119.66" y="107.24" width="12.41" height="12.41" fill="black" /><rect x="144.48" y="107.24" width="12.41" height="12.41" fill="black" /><rect x="169.31" y="107.24" width="12.41" height="12.41" fill="black" /><rect x="181.72" y="107.24" width="12.41" height="12.41" fill="black" /><rect x="194.14" y="107.24" width="12.41" height="12.41" fill="black" /><rect x="206.55" y="107.24" width="12.41" height="12.41" fill="black" /><rect x="218.97" y="107.24" width="12.41" height="12.41" fill="black" /><rect x="231.38" y="107.24" width="12.41" height="12.41" fill="black" /><rect x="243.79" y="107.24" width="12.41" height="12.41" fill="black" /><rect x="256.21" y="107.24" width="12.41" height="12.41" fill="black" /><rect x="268.62" y="107.24" width="12.41" height="12.41" fill="black" /><rect x="281.03" y="107.24" width="12.41" height="12.41" fill="black" /><rect x="343.10" y="107.24" width="12.41" height="12.41" fill="black" /><rect x="367.93" y="107.24" width="12.41" height="12.41" fill="black" /><rect x="380.34" y="107.24" width="12.41" height="12.41" fill="black" /><rect x="392.76" y="107.24" width="12.41" height="12.41" fill="black" /><rect x="417.59" y="107.24" width="12.41" height="12.41" fill="black" /><rect x="70.00" y="119.66" width="12.41" height="12.41" fill="black" /><rect x="94.83" y="119.66" width="12.41" height="12.41" fill="black" /><rect x="107.24" y="119.66" width="12.41" height="12.41" fill="black" /><rect x="119.66" y="119.66" width="12.41" height="12.41" fill="black" /><rect x="144.48" y="119.66" width="12.41" height="12.41" fill="black" /><rect x="169.31" y="119.66" width="12.41" height="12.41" fill="black" /><rect x="243.79" y="119.66" width="12.41" height="12.41" fill="black" /><rect x="256.21" y="119.66" width="12.41" height="12.41" fill="black" /><rect x="293.45" y="119.66" width="12.41" height="12.41" fill="black" /><rect x="343.10" y="119.66" width="12.41" height="12.41" fill="black" /><rect x="367.93" y="119.66" width="12.41" height="12.41" fill="black" /><rect x="380.34" y="119.66" width="12.41" height="12.41" fill="black" /><rect x="392.76" y="119.66" width="12.41" height="12.41" fill="black" /><rect x="417.59" y="119.66" width="12.41" height="12.41" fill="black" /><rect x="70.00" y="132.07" width="12.41" height="12.41" fill="black" /><rect x="144.48" y="132.07" width="12.41" height="12.41" fill="black" /><rect x="169.31" y="132.07" width="12.41" height="12.41" fill="black" /><rect x="231.38" y="132.07" width="12.41" height="12.41" fill="black" /><rect x="243.79" y="132.07" width="12.41" height="12.41" fill="black" /><rect x="268.62" y="132.07" width="12.41" height="12.41" fill="black" /><rect x="281.03" y="132.07" width="12.41" height="12.41" fill="black" /><rect x="293.45" y="132.07" width="12.41" height="12.41" fill="black" /><rect x="343.10" y="132.07" width="12.41" height="12.41" fill="black" /><rect x="417.59" y="132.07" width="12.41" height="12.41" fill="black" /><rect x="70.00" y="144.48" width="12.41" height="12.41" fill="black" /><rect x="82.41" y="144.48" width="12.41" height="12.41" fill="black" /><rect x="94.83" y="144.48" width="12.41" height="12.41" fill="black" /><rect x="107.24" y="144.48" width="12.41" height="12.41" fill="black" /><rect x="119.66" y="144.48" width="12.41" height="12.41" fill="black" /><rect x="132.07" y="144.48" width="12.41" height="12.41" fill="black" /><rect x="144.48" y="144.48" width="12.41" height="12.41" fill="black" /><rect x="169.31" y="144.48" width="12.41" height="12.41" fill="black" /><rect x="194.14" y="144.48" width="12.41" height="12.41" fill="black" /><rect x="218.97" y="144.48" width="12.41" height="12.41" fill="black" /><rect x="243.79" y="144.48" width="12.41" height="12.41" fill="black" /><rect x="268.62" y="144.48" width="12.41" height="12.41" fill="black" /><rect x="293.45" y="144.48" width="12.41" height="12.41" fill="black" /><rect x="318.28" y="144.48" width="12.41" height="12.41" fill="black" /><rect x="343.10" y="144.48" width="12.41" height="12.41" fill="black" /><rect x="355.52" y="144.48" width="12.41" height="12.41" fill="black" /><rect x="367.93" y="144.48" width="12.41" height="12.41" fill="black" /><rect x="380.34" y="144.48" width="12.41" height="12.41" fill="black" /><rect x="392.76" y="144.48" width="12.41" height="12.41" fill="black" /><rect x="405.17" y="144.48" width="12.41" height="12.41" fill="black" /><rect x="417.59" y="144.48" width="12.41" height="12.41" fill="black" /><rect x="181.72" y="156.90" width="12.41" height="12.41" fill="black" /><rect x="194.14" y="156.90" width="12.41" height="12.41" fill="black" /><rect x="206.55" y="156.90" width="12.41" height="12.41" fill="black" /><rect x="218.97" y="156.90" width="12.41" height="12.41" fill="black" /><rect x="231.38" y="156.90" width="12.41" height="12.41" fill="black" /><rect x="243.79" y="156.90" width="12.41" height="12.41" fill="black" /><rect x="268.62" y="156.90" width="12.41" height="12.41" fill="black" /><rect x="281.03" y="156.90" width="12.41" height="12.41" fill="black" /><rect x="305.86" y="156.90" width="12.41" height="12.41" fill="black" /><rect x="318.28" y="156.90" width="12.41" height="12.41" fill="black" /><rect x="94.83" y="169.31" width="12.41" height="12.41" fill="black" /><rect x="132.07" y="169.31" width="12.41" height="12.41" fill="black" /><rect x="144.48" y="169.31" width="12.41" height="12.41" fill="black" /><rect x="156.90" y="169.31" width="12.41" height="12.41" fill="black" /><rect x="169.31" y="169.31" width="12.41" height="12.41" fill="black" /><rect x="181.72" y="169.31" width="12.41" height="12.41" fill="black" /><rect x="218.97" y="169.31" width="12.41" height="12.41" fill="black" /><rect x="231.38" y="169.31" width="12.41" height="12.41" fill="black" /><rect x="243.79" y="169.31" width="12.41" height="12.41" fill="black" /><rect x="256.21" y="169.31" width="12.41" height="12.41" fill="black" /><rect x="281.03" y="169.31" width="12.41" height="12.41" fill="black" /><rect x="318.28" y="169.31" width="12.41" height="12.41" fill="black" /><rect x="330.69" y="169.31" width="12.41" height="12.41" fill="black" /><rect x="355.52" y="169.31" width="12.41" height="12.41" fill="black" /><rect x="367.93" y="169.31" width="12.41" height="12.41" fill="black" /><rect x="380.34" y="169.31" width="12.41" height="12.41" fill="black" /><rect x="392.76" y="169.31" width="12.41" height="12.41" fill="black" /><rect x="405.17" y="169.31" width="12.41" height="12.41" fill="black" /><rect x="82.41" y="181.72" width="12.41" height="12.41" fill="black" /><rect x="107.24" y="181.72" width="12.41" height="12.41" fill="black" /><rect x="132.07" y="181.72" width="12.41" height="12.41" fill="black" /><rect x="169.31" y="181.72" width="12.41" height="12.41" fill="black" /><rect x="181.72" y="181.72" width="12.41" height="12.41" fill="black" /><rect x="194.14" y="181.72" width="12.41" height="12.41" fill="black" /><rect x="206.55" y="181.72" width="12.41" height="12.41" fill="black" /><rect x="231.38" y="181.72" width="12.41" height="12.41" fill="black" /><rect x="256.21" y="181.72" width="12.41" height="12.41" fill="black" /><rect x="281.03" y="181.72" width="12.41" height="12.41" fill="black" /><rect x="318.28" y="181.72" width="12.41" height="12.41" fill="black" /><rect x="355.52" y="181.72" width="12.41" height="12.41" fill="black" /><rect x="367.93" y="181.72" width="12.41" height="12.41" fill="black" /><rect x="380.34" y="181.72" width="12.41" height="12.41" fill="black" /><rect x="392.76" y="181.72" width="12.41" height="12.41" fill="black" /><rect x="405.17" y="181.72" width="12.41" height="12.41" fill="black" /><rect x="417.59" y="181.72" width="12.41" height="12.41" fill="black" /><rect x="70.00" y="194.14" width="12.41" height="12.41" fill="black" /><rect x="94.83" y="194.14" width="12.41" height="12.41" fill="black" /><rect x="107.24" y="194.14" width="12.41" height="12.41" fill="black" /><rect x="119.66" y="194.14" width="12.41" height="12.41" fill="black" /><rect x="144.48" y="194.14" width="12.41" height="12.41" fill="black" /><rect x="169.31" y="194.14" width="12.41" height="12.41" fill="black" /><rect x="194.14" y="194.14" width="12.41" height="12.41" fill="black" /><rect x="206.55" y="194.14" width="12.41" height="12.41" fill="black" /><rect x="243.79" y="194.14" width="12.41" height="12.41" fill="black" /><rect x="293.45" y="194.14" width="12.41" height="12.41" fill="black" /><rect x="318.28" y="194.14" width="12.41" height="12.41" fill="black" /><rect x="343.10" y="194.14" width="12.41" height="12.41" fill="black" /><rect x="355.52" y="194.14" width="12.41" height="12.41" fill="black" /><rect x="417.59" y="194.14" width="12.41" height="12.41" fill="black" /><rect x="70.00" y="206.55" width="12.41" height="12.41" fill="black" /><rect x="132.07" y="206.55" width="12.41" height="12.41" fill="black" /><rect x="169.31" y="206.55" width="12.41" height="12.41" fill="black" /><rect x="218.97" y="206.55" width="12.41" height="12.41" fill="black" /><rect x="231.38" y="206.55" width="12.41" height="12.41" fill="black" /><rect x="243.79" y="206.55" width="12.41" height="12.41" fill="black" /><rect x="268.62" y="206.55" width="12.41" height="12.41" fill="black" /><rect x="281.03" y="206.55" width="12.41" height="12.41" fill="black" /><rect x="293.45" y="206.55" width="12.41" height="12.41" fill="black" /><rect x="305.86" y="206.55" width="12.41" height="12.41" fill="black" /><rect x="318.28" y="206.55" width="12.41" height="12.41" fill="black" /><rect x="330.69" y="206.55" width="12.41" height="12.41" fill="black" /><rect x="355.52" y="206.55" width="12.41" height="12.41" fill="black" /><rect x="367.93" y="206.55" width="12.41" height="12.41" fill="black" /><rect x="380.34" y="206.55" width="12.41" height="12.41" fill="black" /><rect x="405.17" y="206.55" width="12.41" height="12.41" fill="black" /><rect x="417.59" y="206.55" width="12.41" height="12.41" fill="black" /><rect x="82.41" y="218.97" width="12.41" height="12.41" fill="black" /><rect x="144.48" y="218.97" width="12.41" height="12.41" fill="black" /><rect x="156.90" y="218.97" width="12.41" height="12.41" fill="black" /><rect x="169.31" y="218.97" width="12.41" height="12.41" fill="black" /><rect x="181.72" y="218.97" width="12.41" height="12.41" fill="black" /><rect x="243.79" y="218.97" width="12.41" height="12.41" fill="black" /><rect x="281.03" y="218.97" width="12.41" height="12.41" fill="black" /><rect x="318.28" y="218.97" width="12.41" height="12.41" fill="black" /><rect x="343.10" y="218.97" width="12.41" height="12.41" fill="black" /><rect x="355.52" y="218.97" width="12.41" height="12.41" fill="black" /><rect x="380.34" y="218.97" width="12.41" height="12.41" fill="black" /><rect x="417.59" y="218.97" width="12.41" height="12.41" fill="black" /><rect x="70.00" y="231.38" width="12.41" height="12.41" fill="black" /><rect x="82.41" y="231.38" width="12.41" height="12.41" fill="black" /><rect x="94.83" y="231.38" width="12.41" height="12.41" fill="black" /><rect x="119.66" y="231.38" width="12.41" height="12.41" fill="black" /><rect x="156.90" y="231.38" width="12.41" height="12.41" fill="black" /><rect x="169.31" y="231.38" width="12.41" height="12.41" fill="black" /><rect x="194.14" y="231.38" width="12.41" height="12.41" fill="black" /><rect x="231.38" y="231.38" width="12.41" height="12.41" fill="black" /><rect x="243.79" y="231.38" width="12.41" height="12.41" fill="black" /><rect x="256.21" y="231.38" width="12.41" height="12.41" fill="black" /><rect x="281.03" y="231.38" width="12.41" height="12.41" fill="black" /><rect x="305.86" y="231.38" width="12.41" height="12.41" fill="black" /><rect x="318.28" y="231.38" width="12.41" height="12.41" fill="black" /><rect x="343.10" y="231.38" width="12.41" height="12.41" fill="black" /><rect x="355.52" y="231.38" width="12.41" height="12.41" fill="black" /><rect x="380.34" y="231.38" width="12.41" height="12.41" fill="black" /><rect x="417.59" y="231.38" width="12.41" height="12.41" fill="black" /><rect x="119.66" y="243.79" width="12.41" height="12.41" fill="black" /><rect x="144.48" y="243.79" width="12.41" height="12.41" fill="black" /><rect x="169.31" y="243.79" width="12.41" height="12.41" fill="black" /><rect x="181.72" y="243.79" width="12.41" height="12.41" fill="black" /><rect x="194.14" y="243.79" width="12.41" height="12.41" fill="black" /><rect x="206.55" y="243.79" width="12.41" height="12.41" fill="black" /><rect x="243.79" y="243.79" width="12.41" height="12.41" fill="black" /><rect x="268.62" y="243.79" width="12.41" height="12.41" fill="black" /><rect x="305.86" y="243.79" width="12.41" height="12.41" fill="black" /><rect x="330.69" y="243.79" width="12.41" height="12.41" fill="black" /><rect x="343.10" y="243.79" width="12.41" height="12.41" fill="black" /><rect x="417.59" y="243.79" width="12.41" height="12.41" fill="black" /><rect x="70.00" y="256.21" width="12.41" height="12.41" fill="black" /><rect x="94.83" y="256.21" width="12.41" height="12.41" fill="black" /><rect x="107.24" y="256.21" width="12.41" height="12.41" fill="black" /><rect x="156.90" y="256.21" width="12.41" height="12.41" fill="black" /><rect x="218.97" y="256.21" width="12.41" height="12.41" fill="black" /><rect x="243.79" y="256.21" width="12.41" height="12.41" fill="black" /><rect x="256.21" y="256.21" width="12.41" height="12.41" fill="black" /><rect x="330.69" y="256.21" width="12.41" height="12.41" fill="black" /><rect x="355.52" y="256.21" width="12.41" height="12.41" fill="black" /><rect x="380.34" y="256.21" width="12.41" height="12.41" fill="black" /><rect x="405.17" y="256.21" width="12.41" height="12.41" fill="black" /><rect x="417.59" y="256.21" width="12.41" height="12.41" fill="black" /><rect x="82.41" y="268.62" width="12.41" height="12.41" fill="black" /><rect x="94.83" y="268.62" width="12.41" height="12.41" fill="black" /><rect x="107.24" y="268.62" width="12.41" height="12.41" fill="black" /><rect x="144.48" y="268.62" width="12.41" height="12.41" fill="black" /><rect x="169.31" y="268.62" width="12.41" height="12.41" fill="black" /><rect x="206.55" y="268.62" width="12.41" height="12.41" fill="black" /><rect x="231.38" y="268.62" width="12.41" height="12.41" fill="black" /><rect x="243.79" y="268.62" width="12.41" height="12.41" fill="black" /><rect x="268.62" y="268.62" width="12.41" height="12.41" fill="black" /><rect x="281.03" y="268.62" width="12.41" height="12.41" fill="black" /><rect x="330.69" y="268.62" width="12.41" height="12.41" fill="black" /><rect x="343.10" y="268.62" width="12.41" height="12.41" fill="black" /><rect x="367.93" y="268.62" width="12.41" height="12.41" fill="black" /><rect x="405.17" y="268.62" width="12.41" height="12.41" fill="black" /><rect x="417.59" y="268.62" width="12.41" height="12.41" fill="black" /><rect x="82.41" y="281.03" width="12.41" height="12.41" fill="black" /><rect x="107.24" y="281.03" width="12.41" height="12.41" fill="black" /><rect x="119.66" y="281.03" width="12.41" height="12.41" fill="black" /><rect x="132.07" y="281.03" width="12.41" height="12.41" fill="black" /><rect x="181.72" y="281.03" width="12.41" height="12.41" fill="black" /><rect x="194.14" y="281.03" width="12.41" height="12.41" fill="black" /><rect x="231.38" y="281.03" width="12.41" height="12.41" fill="black" /><rect x="256.21" y="281.03" width="12.41" height="12.41" fill="black" /><rect x="268.62" y="281.03" width="12.41" height="12.41" fill="black" /><rect x="281.03" y="281.03" width="12.41" height="12.41" fill="black" /><rect x="293.45" y="281.03" width="12.41" height="12.41" fill="black" /><rect x="330.69" y="281.03" width="12.41" height="12.41" fill="black" /><rect x="380.34" y="281.03" width="12.41" height="12.41" fill="black" /><rect x="392.76" y="281.03" width="12.41" height="12.41" fill="black" /><rect x="405.17" y="281.03" width="12.41" height="12.41" fill="black" /><rect x="417.59" y="281.03" width="12.41" height="12.41" fill="black" /><rect x="70.00" y="293.45" width="12.41" height="12.41" fill="black" /><rect x="82.41" y="293.45" width="12.41" height="12.41" fill="black" /><rect x="107.24" y="293.45" width="12.41" height="12.41" fill="black" /><rect x="119.66" y="293.45" width="12.41" height="12.41" fill="black" /><rect x="132.07" y="293.45" width="12.41" height="12.41" fill="black" /><rect x="144.48" y="293.45" width="12.41" height="12.41" fill="black" /><rect x="156.90" y="293.45" width="12.41" height="12.41" fill="black" /><rect x="181.72" y="293.45" width="12.41" height="12.41" fill="black" /><rect x="206.55" y="293.45" width="12.41" height="12.41" fill="black" /><rect x="218.97" y="293.45" width="12.41" height="12.41" fill="black" /><rect x="256.21" y="293.45" width="12.41" height="12.41" fill="black" /><rect x="268.62" y="293.45" width="12.41" height="12.41" fill="black" /><rect x="305.86" y="293.45" width="12.41" height="12.41" fill="black" /><rect x="367.93" y="293.45" width="12.41" height="12.41" fill="black" /><rect x="392.76" y="293.45" width="12.41" height="12.41" fill="black" /><rect x="417.59" y="293.45" width="12.41" height="12.41" fill="black" /><rect x="107.24" y="305.86" width="12.41" height="12.41" fill="black" /><rect x="119.66" y="305.86" width="12.41" height="12.41" fill="black" /><rect x="156.90" y="305.86" width="12.41" height="12.41" fill="black" /><rect x="169.31" y="305.86" width="12.41" height="12.41" fill="black" /><rect x="181.72" y="305.86" width="12.41" height="12.41" fill="black" /><rect x="218.97" y="305.86" width="12.41" height="12.41" fill="black" /><rect x="243.79" y="305.86" width="12.41" height="12.41" fill="black" /><rect x="268.62" y="305.86" width="12.41" height="12.41" fill="black" /><rect x="293.45" y="305.86" width="12.41" height="12.41" fill="black" /><rect x="330.69" y="305.86" width="12.41" height="12.41" fill="black" /><rect x="343.10" y="305.86" width="12.41" height="12.41" fill="black" /><rect x="405.17" y="305.86" width="12.41" height="12.41" fill="black" /><rect x="417.59" y="305.86" width="12.41" height="12.41" fill="black" /><rect x="70.00" y="318.28" width="12.41" height="12.41" fill="black" /><rect x="82.41" y="318.28" width="12.41" height="12.41" fill="black" /><rect x="94.83" y="318.28" width="12.41" height="12.41" fill="black" /><rect x="144.48" y="318.28" width="12.41" height="12.41" fill="black" /><rect x="156.90" y="318.28" width="12.41" height="12.41" fill="black" /><rect x="181.72" y="318.28" width="12.41" height="12.41" fill="black" /><rect x="231.38" y="318.28" width="12.41" height="12.41" fill="black" /><rect x="293.45" y="318.28" width="12.41" height="12.41" fill="black" /><rect x="305.86" y="318.28" width="12.41" height="12.41" fill="black" /><rect x="318.28" y="318.28" width="12.41" height="12.41" fill="black" /><rect x="330.69" y="318.28" width="12.41" height="12.41" fill="black" /><rect x="343.10" y="318.28" width="12.41" height="12.41" fill="black" /><rect x="355.52" y="318.28" width="12.41" height="12.41" fill="black" /><rect x="367.93" y="318.28" width="12.41" height="12.41" fill="black" /><rect x="380.34" y="318.28" width="12.41" height="12.41" fill="black" /><rect x="392.76" y="318.28" width="12.41" height="12.41" fill="black" /><rect x="169.31" y="330.69" width="12.41" height="12.41" fill="black" /><rect x="181.72" y="330.69" width="12.41" height="12.41" fill="black" /><rect x="194.14" y="330.69" width="12.41" height="12.41" fill="black" /><rect x="218.97" y="330.69" width="12.41" height="12.41" fill="black" /><rect x="268.62" y="330.69" width="12.41" height="12.41" fill="black" /><rect x="293.45" y="330.69" width="12.41" height="12.41" fill="black" /><rect x="318.28" y="330.69" width="12.41" height="12.41" fill="black" /><rect x="367.93" y="330.69" width="12.41" height="12.41" fill="black" /><rect x="380.34" y="330.69" width="12.41" height="12.41" fill="black" /><rect x="417.59" y="330.69" width="12.41" height="12.41" fill="black" /><rect x="70.00" y="343.10" width="12.41" height="12.41" fill="black" /><rect x="82.41" y="343.10" width="12.41" height="12.41" fill="black" /><rect x="94.83" y="343.10" width="12.41" height="12.41" fill="black" /><rect x="107.24" y="343.10" width="12.41" height="12.41" fill="black" /><rect x="119.66" y="343.10" width="12.41" height="12.41" fill="black" /><rect x="132.07" y="343.10" width="12.41" height="12.41" fill="black" /><rect x="144.48" y="343.10" width="12.41" height="12.41" fill="black" /><rect x="169.31" y="343.10" width="12.41" height="12.41" fill="black" /><rect x="181.72" y="343.10" width="12.41" height="12.41" fill="black" /><rect x="218.97" y="343.10" width="12.41" height="12.41" fill="black" /><rect x="231.38" y="343.10" width="12.41" height="12.41" fill="black" /><rect x="256.21" y="343.10" width="12.41" height="12.41" fill="black" /><rect x="293.45" y="343.10" width="12.41" height="12.41" fill="black" /><rect x="318.28" y="343.10" width="12.41" height="12.41" fill="black" /><rect x="343.10" y="343.10" width="12.41" height="12.41" fill="black" /><rect x="367.93" y="343.10" width="12.41" height="12.41" fill="black" /><rect x="417.59" y="343.10" width="12.41" height="12.41" fill="black" /><rect x="70.00" y="355.52" width="12.41" height="12.41" fill="black" /><rect x="144.48" y="355.52" width="12.41" height="12.41" fill="black" /><rect x="169.31" y="355.52" width="12.41" height="12.41" fill="black" /><rect x="206.55" y="355.52" width="12.41" height="12.41" fill="black" /><rect x="218.97" y="355.52" width="12.41" height="12.41" fill="black" /><rect x="256.21" y="355.52" width="12.41" height="12.41" fill="black" /><rect x="268.62" y="355.52" width="12.41" height="12.41" fill="black" /><rect x="293.45" y="355.52" width="12.41" height="12.41" fill="black" /><rect x="305.86" y="355.52" width="12.41" height="12.41" fill="black" /><rect x="318.28" y="355.52" width="12.41" height="12.41" fill="black" /><rect x="367.93" y="355.52" width="12.41" height="12.41" fill="black" /><rect x="417.59" y="355.52" width="12.41" height="12.41" fill="black" /><rect x="70.00" y="367.93" width="12.41" height="12.41" fill="black" /><rect x="94.83" y="367.93" width="12.41" height="12.41" fill="black" /><rect x="107.24" y="367.93" width="12.41" height="12.41" fill="black" /><rect x="119.66" y="367.93" width="12.41" height="12.41" fill="black" /><rect x="144.48" y="367.93" width="12.41" height="12.41" fill="black" /><rect x="181.72" y="367.93" width="12.41" height="12.41" fill="black" /><rect x="194.14" y="367.93" width="12.41" height="12.41" fill="black" /><rect x="206.55" y="367.93" width="12.41" height="12.41" fill="black" /><rect x="268.62" y="367.93" width="12.41" height="12.41" fill="black" /><rect x="281.03" y="367.93" width="12.41" height="12.41" fill="black" /><rect x="305.86" y="367.93" width="12.41" height="12.41" fill="black" /><rect x="318.28" y="367.93" width="12.41" height="12.41" fill="black" /><rect x="330.69" y="367.93" width="12.41" height="12.41" fill="black" /><rect x="343.10" y="367.93" width="12.41" height="12.41" fill="black" /><rect x="355.52" y="367.93" width="12.41" height="12.41" fill="black" /><rect x="367.93" y="367.93" width="12.41" height="12.41" fill="black" /><rect x="380.34" y="367.93" width="12.41" height="12.41" fill="black" /><rect x="70.00" y="380.34" width="12.41" height="12.41" fill="black" /><rect x="94.83" y="380.34" width="12.41" height="12.41" fill="black" /><rect x="107.24" y="380.34" width="12.41" height="12.41" fill="black" /><rect x="119.66" y="380.34" width="12.41" height="12.41" fill="black" /><rect x="144.48" y="380.34" width="12.41" height="12.41" fill="black" /><rect x="194.14" y="380.34" width="12.41" height="12.41" fill="black" /><rect x="243.79" y="380.34" width="12.41" height="12.41" fill="black" /><rect x="268.62" y="380.34" width="12.41" height="12.41" fill="black" /><rect x="281.03" y="380.34" width="12.41" height="12.41" fill="black" /><rect x="293.45" y="380.34" width="12.41" height="12.41" fill="black" /><rect x="330.69" y="380.34" width="12.41" height="12.41" fill="black" /><rect x="367.93" y="380.34" width="12.41" height="12.41" fill="black" /><rect x="380.34" y="380.34" width="12.41" height="12.41" fill="black" /><rect x="392.76" y="380.34" width="12.41" height="12.41" fill="black" /><rect x="70.00" y="392.76" width="12.41" height="12.41" fill="black" /><rect x="94.83" y="392.76" width="12.41" height="12.41" fill="black" /><rect x="107.24" y="392.76" width="12.41" height="12.41" fill="black" /><rect x="119.66" y="392.76" width="12.41" height="12.41" fill="black" /><rect x="144.48" y="392.76" width="12.41" height="12.41" fill="black" /><rect x="169.31" y="392.76" width="12.41" height="12.41" fill="black" /><rect x="181.72" y="392.76" width="12.41" height="12.41" fill="black" /><rect x="206.55" y="392.76" width="12.41" height="12.41" fill="black" /><rect x="231.38" y="392.76" width="12.41" height="12.41" fill="black" /><rect x="293.45" y="392.76" width="12.41" height="12.41" fill="black" /><rect x="330.69" y="392.76" width="12.41" height="12.41" fill="black" /><rect x="367.93" y="392.76" width="12.41" height="12.41" fill="black" /><rect x="380.34" y="392.76" width="12.41" height="12.41" fill="black" /><rect x="405.17" y="392.76" width="12.41" height="12.41" fill="black" /><rect x="417.59" y="392.76" width="12.41" height="12.41" fill="black" /><rect x="70.00" y="405.17" width="12.41" height="12.41" fill="black" /><rect x="144.48" y="405.17" width="12.41" height="12.41" fill="black" /><rect x="231.38" y="405.17" width="12.41" height="12.41" fill="black" /><rect x="256.21" y="405.17" width="12.41" height="12.41" fill="black" /><rect x="293.45" y="405.17" width="12.41" height="12.41" fill="black" /><rect x="330.69" y="405.17" width="12.41" height="12.41" fill="black" /><rect x="343.10" y="405.17" width="12.41" height="12.41" fill="black" /><rect x="367.93" y="405.17" width="12.41" height="12.41" fill="black" /><rect x="380.34" y="405.17" width="12.41" height="12.41" fill="black" /><rect x="392.76" y="405.17" width="12.41" height="12.41" fill="black" /><rect x="70.00" y="417.59" width="12.41" height="12.41" fill="black" /><rect x="82.41" y="417.59" width="12.41" height="12.41" fill="black" /><rect x="94.83" y="417.59" width="12.41" height="12.41" fill="black" /><rect x="107.24" y="417.59" width="12.41" height="12.41" fill="black" /><rect x="119.66" y="417.59" width="12.41" height="12.41" fill="black" /><rect x="132.07" y="417.59" width="12.41" height="12.41" fill="black" /><rect x="144.48" y="417.59" width="12.41" height="12.41" fill="black" /><rect x="181.72" y="417.59" width="12.41" height="12.41" fill="black" /><rect x="206.55" y="417.59" width="12.41" height="12.41" fill="black" /><rect x="218.97" y="417.59" width="12.41" height="12.41" fill="black" /><rect x="231.38" y="417.59" width="12.41" height="12.41" fill="black" /><rect x="256.21" y="417.59" width="12.41" height="12.41" fill="black" /><rect x="268.62" y="417.59" width="12.41" height="12.41" fill="black" /><rect x="330.69" y="417.59" width="12.41" height="12.41" fill="black" /><rect x="380.34" y="417.59" width="12.41" height="12.41" fill="black" /><rect x="392.76" y="417.59" width="12.41" height="12.41" fill="black" /><rect x="417.59" y="417.59" width="12.41" height="12.41" fill="black" /></svg>